<svg width="32" height="32" viewBox="0 0 32 32" fill="none" xmlns="http://www.w3.org/2000/svg">
<path d="M1.38527 14.6147H27.2708L21.0941 8.43768C20.553 7.89688 20.553 7.01961 21.0941 6.4789C21.6352 5.93778 22.5125 5.93778 23.0528 6.4789L31.5942 15.0204C32.1353 15.5612 32.1353 16.4386 31.5942 16.9792L23.0528 25.5211C22.7823 25.7917 22.4279 25.9269 22.0735 25.9269C21.7191 25.9269 21.3646 25.7917 21.0941 25.5211C20.553 24.9803 20.553 24.103 21.0941 23.5624L27.2708 17.385H1.38527C0.620314 17.385 0 16.7648 0 15.9998C0 15.2349 0.620234 14.6147 1.38527 14.6147Z" fill="white"/>
</svg>
